<svg xmlns="http://www.w3.org/2000/svg" xmlns:xlink="http://www.w3.org/1999/xlink" contentStyleType="text/css" height="578.125px" preserveAspectRatio="none" style="width:662px;height:578px;" version="1.1" viewBox="0 0 662 578" width="662.5px" zoomAndPan="magnify"><defs><linearGradient id="g12ikb1k8b2vpb0" x1="50%" x2="50%" y1="0%" y2="100%"><stop offset="0%" stop-color="#59B6EC"/><stop offset="100%" stop-color="#2FA4E7"/></linearGradient><linearGradient id="g12ikb1k8b2vpb1" x1="50%" x2="50%" y1="0%" y2="100%"><stop offset="0%" stop-color="#35638F"/><stop offset="100%" stop-color="#033C73"/></linearGradient></defs><g><line style="stroke:#BABDBF;stroke-width:1.0416666666666667;stroke-dasharray:5.0,5.0;" x1="230.5603" x2="230.5603" y1="51.0091" y2="527.6693"/><line style="stroke:#BABDBF;stroke-width:1.0416666666666667;stroke-dasharray:5.0,5.0;" x1="444.2749" x2="444.2749" y1="51.0091" y2="527.6693"/><rect fill="#EDF0F2" height="270.6055" style="stroke:#BABDBF;stroke-width:1.0416666666666667;" width="10.4167" x="439.0666" y="198.763"/><rect fill="url(#g12ikb1k8b2vpb0)" height="39.5508" rx="4.1667" ry="4.1667" style="stroke:#2FA4E7;stroke-width:1.0416666666666667;" width="61.1877" x="199.9664" y="10.4167"/><text fill="#FFFFFF" font-family="Verdana" font-size="12.5" lengthAdjust="spacing" textLength="36.1877" x="212.4664" y="34.5194">Client</text><rect fill="url(#g12ikb1k8b2vpb0)" height="39.5508" rx="4.1667" ry="4.1667" style="stroke:#2FA4E7;stroke-width:1.0416666666666667;" width="67.749" x="410.4004" y="10.4167"/><text fill="#FFFFFF" font-family="Verdana" font-size="12.5" lengthAdjust="spacing" textLength="42.749" x="422.9004" y="34.5194">Device</text><rect fill="url(#g12ikb1k8b2vpb0)" height="39.5508" rx="4.1667" ry="4.1667" style="stroke:#2FA4E7;stroke-width:1.0416666666666667;" width="61.1877" x="199.9664" y="527.6693"/><text fill="#FFFFFF" font-family="Verdana" font-size="12.5" lengthAdjust="spacing" textLength="36.1877" x="212.4664" y="551.7721">Client</text><rect fill="url(#g12ikb1k8b2vpb0)" height="39.5508" rx="4.1667" ry="4.1667" style="stroke:#2FA4E7;stroke-width:1.0416666666666667;" width="67.749" x="410.4004" y="527.6693"/><text fill="#FFFFFF" font-family="Verdana" font-size="12.5" lengthAdjust="spacing" textLength="42.749" x="422.9004" y="551.7721">Device</text><polygon fill="#2FA4E7" points="431.7749,100.944,442.1916,105.1107,431.7749,109.2773,435.9416,105.1107" style="stroke:#2FA4E7;stroke-width:1.0416666666666667;"/><line style="stroke:#2FA4E7;stroke-width:3.125;" x1="230.5603" x2="438.0249" y1="105.1107" y2="105.1107"/><text fill="#343A40" font-family="Verdana" font-size="12.5" lengthAdjust="spacing" textLength="64.9902" x="243.0603" y="80.3202">&#171;Get info&#187;</text><text fill="#343A40" font-family="monospace" font-size="12.5" lengthAdjust="spacing" textLength="127.9358" x="243.0603" y="94.871">GET&#160;device/stream</text><polygon fill="#2FA4E7" points="242.0186,140.4948,231.602,144.6615,242.0186,148.8281,237.852,144.6615" style="stroke:#2FA4E7;stroke-width:1.0416666666666667;"/><line style="stroke:#2FA4E7;stroke-width:3.125;stroke-dasharray:2.0,2.0;" x1="235.7686" x2="443.2332" y1="144.6615" y2="144.6615"/><text fill="#343A40" font-family="Verdana" font-size="12.5" lengthAdjust="spacing" textLength="136.2793" x="253.477" y="134.4218">Success (canvas size)</text><polygon fill="#2FA4E7" points="426.5666,194.5964,436.9832,198.763,426.5666,202.9297,430.7332,198.763" style="stroke:#2FA4E7;stroke-width:1.0416666666666667;"/><line style="stroke:#2FA4E7;stroke-width:3.125;" x1="230.5603" x2="432.8166" y1="198.763" y2="198.763"/><text fill="#343A40" font-family="Verdana" font-size="12.5" lengthAdjust="spacing" textLength="95.3064" x="243.0603" y="173.9726">&#171;Start Stream&#187;</text><text fill="#343A40" font-family="monospace" font-size="12.5" lengthAdjust="spacing" textLength="173.0896" x="243.0603" y="188.5234">PUT&#160;device/stream/start</text><path d="M454.6916,162.3698 L454.6916,202.9948 A4.1667,4.1667 0 0 0 458.8582,207.1615 L646.3582,207.1615 A4.1667,4.1667 0 0 0 650.5249,202.9948 L650.5249,168.6198 L640.1082,158.2031 L458.8582,158.2031 A4.1667,4.1667 0 0 0 454.6916,162.3698 " fill="url(#g12ikb1k8b2vpb1)" style="stroke:#033C73;stroke-width:1.0416666666666667;"/><path d="M640.1082,158.2031 L640.1082,166.5365 A2.0833,2.0833 0 0 0 642.1916,168.6198 L650.5249,168.6198 L640.1082,158.2031 " fill="url(#g12ikb1k8b2vpb1)" style="stroke:#033C73;stroke-width:1.0416666666666667;"/><text fill="#FFFFFF" font-family="Verdana" font-size="12.5" lengthAdjust="spacing" textLength="115.4846" x="466.1499" y="180.2226">Starts listening for</text><text fill="#FFFFFF" font-family="Verdana" font-size="12.5" lengthAdjust="spacing" textLength="164.0198" x="466.1499" y="194.7734">UDP packets on port 9999</text><polygon fill="#2FA4E7" points="242.0186,240.3971,231.602,244.5638,242.0186,248.7305,237.852,244.5638" style="stroke:#2FA4E7;stroke-width:1.0416666666666667;"/><line style="stroke:#2FA4E7;stroke-width:3.125;stroke-dasharray:2.0,2.0;" x1="235.7686" x2="438.0249" y1="244.5638" y2="244.5638"/><text fill="#343A40" font-family="Verdana" font-size="12.5" lengthAdjust="spacing" textLength="159.2651" x="253.477" y="234.3241">Success (session id, port)</text><polygon fill="#2FA4E7" points="426.5666,279.9479,436.9832,284.1146,426.5666,288.2813,430.7332,284.1146" style="stroke:#2FA4E7;stroke-width:1.0416666666666667;"/><line style="stroke:#2FA4E7;stroke-width:3.125;" x1="230.5603" x2="432.8166" y1="284.1146" y2="284.1146"/><text fill="#343A40" font-family="Verdana" font-size="12.5" lengthAdjust="spacing" textLength="126.4771" x="243.0603" y="273.8749">Send LMSP Packet 1</text><polygon fill="#2FA4E7" points="426.5666,319.4987,436.9832,323.6654,426.5666,327.832,430.7332,323.6654" style="stroke:#2FA4E7;stroke-width:1.0416666666666667;"/><line style="stroke:#2FA4E7;stroke-width:3.125;" x1="230.5603" x2="432.8166" y1="323.6654" y2="323.6654"/><text fill="#343A40" font-family="Verdana" font-size="12.5" lengthAdjust="spacing" textLength="126.4771" x="243.0603" y="313.4257">Send LMSP Packet 2</text><path d="M15.625,301.8229 L15.625,327.8646 A4.1667,4.1667 0 0 0 19.7917,332.0313 L220.8333,332.0313 A4.1667,4.1667 0 0 0 225,327.8646 L225,308.0729 L214.5833,297.6563 L19.7917,297.6563 A4.1667,4.1667 0 0 0 15.625,301.8229 " fill="url(#g12ikb1k8b2vpb1)" style="stroke:#033C73;stroke-width:1.0416666666666667;"/><path d="M214.5833,297.6563 L214.5833,305.9896 A2.0833,2.0833 0 0 0 216.6667,308.0729 L225,308.0729 L214.5833,297.6563 " fill="url(#g12ikb1k8b2vpb1)" style="stroke:#033C73;stroke-width:1.0416666666666667;"/><text fill="#FFFFFF" font-family="Verdana" font-size="12.5" lengthAdjust="spacing" textLength="177.4353" x="27.0833" y="319.6757">Send 30 packets per second</text><path d="M235.7686,347.6237 L235.7686,373.6654 A4.1667,4.1667 0 0 0 239.9353,377.832 L275.352,377.832 A4.1667,4.1667 0 0 0 279.5186,373.6654 L279.5186,353.8737 L269.102,343.457 L239.9353,343.457 A4.1667,4.1667 0 0 0 235.7686,347.6237 " fill="url(#g12ikb1k8b2vpb1)" style="stroke:#033C73;stroke-width:1.0416666666666667;"/><path d="M269.102,343.457 L269.102,351.7904 A2.0833,2.0833 0 0 0 271.1853,353.8737 L279.5186,353.8737 L269.102,343.457 " fill="url(#g12ikb1k8b2vpb1)" style="stroke:#033C73;stroke-width:1.0416666666666667;"/><text fill="#FFFFFF" font-family="Verdana" font-size="12.5" lengthAdjust="spacing" textLength="11.9202" x="247.227" y="365.4765">...</text><polygon fill="#2FA4E7" points="426.5666,411.1003,436.9832,415.2669,426.5666,419.4336,430.7332,415.2669" style="stroke:#2FA4E7;stroke-width:1.0416666666666667;"/><line style="stroke:#2FA4E7;stroke-width:3.125;" x1="230.5603" x2="432.8166" y1="415.2669" y2="415.2669"/><text fill="#343A40" font-family="Verdana" font-size="12.5" lengthAdjust="spacing" textLength="127.8748" x="243.0603" y="405.0273">Send LMSP Packet N</text><polygon fill="#2FA4E7" points="426.5666,465.2018,436.9832,469.3685,426.5666,473.5352,430.7332,469.3685" style="stroke:#2FA4E7;stroke-width:1.0416666666666667;"/><line style="stroke:#2FA4E7;stroke-width:3.125;" x1="230.5603" x2="432.8166" y1="469.3685" y2="469.3685"/><text fill="#343A40" font-family="Verdana" font-size="12.5" lengthAdjust="spacing" textLength="93.1885" x="243.0603" y="444.578">&#171;Stop Stream&#187;</text><text fill="#343A40" font-family="monospace" font-size="12.5" lengthAdjust="spacing" textLength="165.564" x="243.0603" y="459.1288">PUT&#160;device/stream/stop</text><polygon fill="#2FA4E7" points="242.0186,504.7526,231.602,508.9193,242.0186,513.0859,237.852,508.9193" style="stroke:#2FA4E7;stroke-width:1.0416666666666667;"/><line style="stroke:#2FA4E7;stroke-width:3.125;stroke-dasharray:2.0,2.0;" x1="235.7686" x2="443.2332" y1="508.9193" y2="508.9193"/><text fill="#343A40" font-family="Verdana" font-size="12.5" lengthAdjust="spacing" textLength="50.3174" x="253.477" y="498.6796">Success</text><!--SRC=[ZL7BJiCm4BpxAwOvKOc6rucgoeMYNW152hrniPnDQf7ObhtfeL-FaqOKLVJXmzhIpCxiU2UyePQWo7SDIICcpikwbM2oEx3lIBmqcWnZbc59Mwq8SomMM153cyeYoxvCagnUFr4Ey5rWJx9D4Z7IPx5pr9YZw9IY472ZfDdAWA1tD3rXKR3q76ilDzhawoERU4LID9EAzLOoZGh2sFZskjwm0FPI0OqEJ4QR6fNrw87rCeUJwfiYQWsSZOxFyGWo9NgDyob2h3hswV9sw9sA_x8KlTZRUv4Z7wpmS1NhSH-YeQhFCC1Fzx_JEl88fAmf3xF-IGrRZVFsCTCqFR2kyVuG9vTYtUMTM1TNKjBnKixyvGy0]--></g></svg>